<svg width="15" height="14" viewBox="0 0 15 14" fill="none" xmlns="http://www.w3.org/2000/svg">
<g clip-path="url(#clip0_2_462)">
<path d="M7.2879 1.1084C8.93795 1.1084 9.14383 1.11394 9.79122 1.14165C10.438 1.16937 10.8783 1.26193 11.2658 1.39939C11.6666 1.54018 12.0042 1.73084 12.3419 2.03846C12.6507 2.31554 12.8897 2.65071 13.0421 3.02063C13.1921 3.3737 13.2942 3.7761 13.3245 4.3664C13.3531 4.95725 13.361 5.14515 13.361 6.6511C13.361 8.15706 13.3549 8.34495 13.3245 8.93581C13.2942 9.5261 13.1921 9.92795 13.0421 10.2816C12.8901 10.6517 12.6511 10.9869 12.3419 11.2637C12.0382 11.5455 11.671 11.7636 11.2658 11.9028C10.8789 12.0397 10.438 12.1328 9.79122 12.1606C9.14383 12.1866 8.93795 12.1938 7.2879 12.1938C5.63785 12.1938 5.43198 12.1883 4.78459 12.1606C4.13781 12.1328 3.69751 12.0397 3.31005 11.9028C2.90457 11.764 2.53727 11.5458 2.2339 11.2637C1.92503 10.9867 1.68607 10.6515 1.53368 10.2816C1.38307 9.9285 1.28165 9.5261 1.25128 8.93581C1.22274 8.34495 1.21484 8.15706 1.21484 6.6511C1.21484 5.14515 1.22092 4.95725 1.25128 4.3664C1.28165 3.77555 1.38307 3.37426 1.53368 3.02063C1.68565 2.65048 1.92467 2.31522 2.2339 2.03846C2.53736 1.75647 2.90463 1.53836 3.31005 1.39939C3.69751 1.26193 4.1372 1.16937 4.78459 1.14165C5.43198 1.1156 5.63785 1.1084 7.2879 1.1084ZM7.2879 3.87975C6.48256 3.87975 5.71021 4.17173 5.14075 4.69146C4.57129 5.21119 4.25137 5.91609 4.25137 6.6511C4.25137 7.38611 4.57129 8.09102 5.14075 8.61074C5.71021 9.13047 6.48256 9.42245 7.2879 9.42245C8.09324 9.42245 8.86559 9.13047 9.43505 8.61074C10.0045 8.09102 10.3244 7.38611 10.3244 6.6511C10.3244 5.91609 10.0045 5.21119 9.43505 4.69146C8.86559 4.17173 8.09324 3.87975 7.2879 3.87975ZM11.2354 3.74118C11.2354 3.55743 11.1554 3.3812 11.013 3.25127C10.8707 3.12134 10.6776 3.04834 10.4763 3.04834C10.2749 3.04834 10.0818 3.12134 9.93947 3.25127C9.79711 3.3812 9.71713 3.55743 9.71713 3.74118C9.71713 3.92494 9.79711 4.10116 9.93947 4.23109C10.0818 4.36103 10.2749 4.43402 10.4763 4.43402C10.6776 4.43402 10.8707 4.36103 11.013 4.23109C11.1554 4.10116 11.2354 3.92494 11.2354 3.74118ZM7.2879 4.98829C7.77111 4.98829 8.23452 5.16348 8.57619 5.47532C8.91787 5.78716 9.10982 6.2101 9.10982 6.6511C9.10982 7.09211 8.91787 7.51505 8.57619 7.82689C8.23452 8.13873 7.77111 8.31391 7.2879 8.31391C6.8047 8.31391 6.34129 8.13873 5.99961 7.82689C5.65794 7.51505 5.46598 7.09211 5.46598 6.6511C5.46598 6.2101 5.65794 5.78716 5.99961 5.47532C6.34129 5.16348 6.8047 4.98829 7.2879 4.98829Z" fill="#2B2B2B"/>
</g>
<defs>
<clipPath id="clip0_2_462">
<rect width="14.5753" height="13.3025" fill="white"/>
</clipPath>
</defs>
</svg>
