<svg width="15" height="14" viewBox="0 0 15 14" fill="none" xmlns="http://www.w3.org/2000/svg">
<g clip-path="url(#clip0_2_470)">
<path d="M4.21487 2.7712C4.21471 3.06521 4.08659 3.34711 3.85869 3.5549C3.63079 3.76269 3.32178 3.87934 2.99965 3.87919C2.67751 3.87904 2.36864 3.76211 2.14097 3.55412C1.9133 3.34612 1.78548 3.0641 1.78564 2.7701C1.78581 2.47609 1.91393 2.19419 2.14183 1.9864C2.36972 1.77861 2.67873 1.66196 3.00086 1.66211C3.323 1.66226 3.63188 1.77919 3.85955 1.98719C4.08722 2.19518 4.21503 2.4772 4.21487 2.7712ZM4.25131 4.70007H1.82208V11.6395H4.25131V4.70007ZM8.08948 4.70007H5.6724V11.6395H8.06519V7.99798C8.06519 5.96935 10.962 5.78089 10.962 7.99798V11.6395H13.3609V7.24417C13.3609 3.82432 9.07332 3.9518 8.06519 5.63124L8.08948 4.70007Z" fill="#2B2B2B"/>
</g>
<defs>
<clipPath id="clip0_2_470">
<rect width="14.5753" height="13.3025" fill="white"/>
</clipPath>
</defs>
</svg>
