<svg width="15" height="14" viewBox="0 0 15 14" fill="none" xmlns="http://www.w3.org/2000/svg">
<g clip-path="url(#clip0_2_466)">
<path d="M13.4593 3.13493C12.9956 3.32211 12.504 3.44503 12.0005 3.49964C12.5312 3.21 12.9283 2.75416 13.118 2.21706C12.62 2.48755 12.074 2.67711 11.505 2.77965C11.1227 2.40639 10.6161 2.15884 10.0638 2.07549C9.51152 1.99214 8.94454 2.07766 8.45099 2.31874C7.95745 2.55983 7.56501 2.94298 7.33467 3.40863C7.10434 3.87428 7.04902 4.39633 7.17731 4.89363C6.16743 4.84744 5.17948 4.60792 4.2776 4.19063C3.37572 3.77334 2.58008 3.18762 1.94233 2.47147C1.71659 2.82535 1.59796 3.22762 1.5986 3.6371C1.5986 4.44079 2.04679 5.15082 2.72819 5.56652C2.32494 5.55493 1.93057 5.45554 1.57795 5.27663V5.30546C1.57807 5.84072 1.78101 6.35947 2.15237 6.77375C2.52372 7.18804 3.04064 7.47236 3.61546 7.57852C3.24113 7.6711 2.84862 7.68475 2.46765 7.61843C2.62972 8.07916 2.94561 8.48209 3.37108 8.77082C3.79655 9.05954 4.3103 9.2196 4.8404 9.22858C4.31355 9.60622 3.71031 9.88538 3.06517 10.0501C2.42003 10.2148 1.74564 10.2619 1.08057 10.1886C2.24155 10.87 3.59305 11.2318 4.9734 11.2306C9.6454 11.2306 12.2003 7.69824 12.2003 4.63479C12.2003 4.53502 12.1973 4.43414 12.1924 4.33548C12.6897 4.00745 13.1189 3.60109 13.4599 3.13549L13.4593 3.13493Z" fill="#2B2B2B"/>
</g>
<defs>
<clipPath id="clip0_2_466">
<rect width="14.5753" height="13.3025" fill="white"/>
</clipPath>
</defs>
</svg>
