<svg width="15" height="14" viewBox="0 0 15 14" fill="none" xmlns="http://www.w3.org/2000/svg">
<g clip-path="url(#clip0_2_478)">
<path d="M12.1397 6.41388C12.0899 5.54141 11.7574 4.70207 11.1844 4.00224C11.0098 4.17386 10.8231 4.33494 10.6257 4.48446C10.0189 4.94442 9.34089 5.31985 8.61365 5.59854C8.71507 5.79254 8.80799 5.98044 8.88998 6.1578V6.15946C8.91311 6.20902 8.93538 6.25891 8.95678 6.30912C9.87624 6.21489 10.8455 6.24926 11.785 6.3651C11.9101 6.38062 12.0279 6.39725 12.1397 6.41388ZM6.4401 2.28456C7.03195 3.04567 7.57772 3.83576 8.07497 4.6513C8.81771 4.38414 9.43169 4.04714 9.92604 3.6719C10.0976 3.54283 10.2592 3.403 10.4095 3.25342C9.53553 2.5826 8.42982 2.21546 7.2879 2.21694C7.0037 2.21676 6.72003 2.2392 6.4401 2.28401V2.28456ZM2.5831 5.5409C2.99682 5.53137 3.41004 5.50863 3.82201 5.47272C4.81777 5.39144 5.80503 5.2391 6.77473 5.01711C6.26794 4.21354 5.72078 3.43174 5.135 2.67421C4.50931 2.95711 3.95759 3.35952 3.51729 3.85414C3.07698 4.34876 2.75838 4.92402 2.5831 5.5409ZM3.51228 9.44185C3.74792 9.12758 4.05764 8.77396 4.46879 8.38929C5.35181 7.56343 6.39395 6.92048 7.60006 6.56574L7.63771 6.55577C7.53751 6.35401 7.44337 6.17388 7.34863 6.00427C6.23362 6.3008 5.05909 6.48593 3.88881 6.58182C3.31794 6.62893 2.80599 6.64944 2.42946 6.65277C2.42838 7.66852 2.81102 8.65355 3.51289 9.44185H3.51228ZM9.11286 10.761C8.87866 9.6831 8.54715 8.62471 8.12173 7.59669C6.90591 7.99964 5.93725 8.58883 5.18845 9.29165C4.88625 9.5701 4.61807 9.87768 4.38862 10.209C5.22598 10.7792 6.24314 11.0866 7.2879 11.0853C7.91337 11.0861 8.5331 10.9764 9.11286 10.7621V10.761ZM10.2503 10.1652C11.1985 9.49992 11.8444 8.53879 12.0644 7.46588C11.8579 7.41877 11.5961 7.37165 11.3083 7.33507C10.6683 7.25096 10.0188 7.24481 9.37703 7.31678C9.73842 8.24731 10.0302 9.19914 10.2503 10.1657V10.1652ZM7.2879 12.1938C3.93375 12.1938 1.21484 9.71234 1.21484 6.6511C1.21484 3.58987 3.93375 1.1084 7.2879 1.1084C10.6421 1.1084 13.361 3.58987 13.361 6.6511C13.361 9.71234 10.6421 12.1938 7.2879 12.1938Z" fill="#2B2B2B"/>
</g>
<defs>
<clipPath id="clip0_2_478">
<rect width="14.5753" height="13.3025" fill="white"/>
</clipPath>
</defs>
</svg>
