<svg width="15" height="14" viewBox="0 0 15 14" fill="none" xmlns="http://www.w3.org/2000/svg">
<g clip-path="url(#clip0_2_474)">
<path d="M13.0834 3.60185C13.361 4.58956 13.361 6.65145 13.361 6.65145C13.361 6.65145 13.361 8.71334 13.0834 9.70105C12.9292 10.247 12.4779 10.6766 11.9065 10.8218C10.8686 11.0856 7.2879 11.0856 7.2879 11.0856C7.2879 11.0856 3.70905 11.0856 2.66934 10.8218C2.09544 10.6743 1.64482 10.2453 1.49238 9.70105C1.21484 8.71334 1.21484 6.65145 1.21484 6.65145C1.21484 6.65145 1.21484 4.58956 1.49238 3.60185C1.64664 3.0559 2.09787 2.62634 2.66934 2.48112C3.70905 2.21729 7.2879 2.21729 7.2879 2.21729C7.2879 2.21729 10.8686 2.21729 11.9065 2.48112C12.4804 2.62855 12.931 3.05756 13.0834 3.60185ZM6.07329 8.5914L9.71713 6.65145L6.07329 4.7115V8.5914Z" fill="#2B2B2B"/>
</g>
<defs>
<clipPath id="clip0_2_474">
<rect width="14.5753" height="13.3025" fill="white"/>
</clipPath>
</defs>
</svg>
